<?xml version="1.0" encoding="utf-8"?>
<!-- Generator: Adobe Illustrator 26.3.1, SVG Export Plug-In . SVG Version: 6.00 Build 0)  -->
<svg version="1.1" id="Layer_1" xmlns="http://www.w3.org/2000/svg" xmlns:xlink="http://www.w3.org/1999/xlink" x="0px" y="0px"
	 viewBox="0 0 902.4 826.2" style="enable-background:new 0 0 902.4 826.2;" xml:space="preserve">
<style type="text/css">
	.st0{fill:#E6E6E6;}
	.st1{fill:#3F3D56;}
	.st2{fill:#2E8067;}
	.st3{fill:#D3FF99;}
	.st4{opacity:0.3;fill:#F0F0F0;enable-background:new    ;}
	.st5{fill:#D1FE99;}
	.st6{fill:#F2F2F2;}
	.st7{fill:#CCCCCC;}
</style>
<path class="st0" d="M578.2,659.8l8.7,19.4c-7-1.1-13.6,4.9-13.8,12.6s6.1,15.8,13.2,16.9c-1.3,6-7.2,8.6-12.2,11.1
	s-10.5,6.4-10.1,12.8c0.3,5.1,4.5,9.7,9.1,11.5s9.2,1.5,13.8,1.2c-6.9,7.2-7.6,20.8-1.5,30.6s18.2,14.6,27.3,10.8
	c-6.4,8-5,22.6,2.9,30.9c8,8.3,19.7,9.1,29.9,8.2c25.9-2.2,50.6-12,71-28.1c7.8-6.2,15.1-13.5,19.5-22.9s5.7-21.5,1.6-32.3
	c1.1,13.5,14.6,24.2,26.8,24.8s22.8-6.3,31.8-14.1c12-10.4,23.1-25,21.5-43c-0.8-8.9-4.7-17.5-8.5-25.8l-7.4-16.1
	c-3-6.5-6-13.1-10.5-18.5s-10.7-9.7-17-9.6c1.4-6.5,2.9-13.3,1.7-20.2s-5.8-14.1-12-15.7c-7.9-2.1-14.6,5.3-22.6,4.6
	c-7.7-0.7-14-8.4-21.5-11.4c-6.3-2.7-13.5-1.5-18.5,3.2c-4.7,4.6-6.7,12.4-5,19.8c1.5,6.5,5.4,12.1,7.8,18.4s2.8,14.2-1.8,17.6
	c-5.6,4.1-14-1.5-18.4-8.2s-6.8-14.9-12.3-20.6c-6.5-6.7-16.6-8.3-23.3-3.6s-9.2,15.1-5.9,24c2.7,7.3,9,14.6,6.9,21.5
	c-2.3,7.2-12.4,6.3-18.5,1.2s-10.1-12.8-16.2-18c-6.1-5.3-14.1-7.6-21.1-6.1c-7.2,1.7-13.1,6.9-15.6,13.9"/>
<path class="st1" d="M718.6,605.2l-18,8.4c-2.7,1.3-5.8,1.7-8.7,1.2c-2.6-0.6-4.4-2.2-4.8-4.4l-4.2-19.6c-0.8-3.7,2.3-8.1,7.3-10.4
	l9.9-4.6c5-2.3,10.3-1.8,12.6,1.1l12.2,15.8c1.4,1.8,1.4,4.1,0.2,6.5C723.6,601.9,721.3,604,718.6,605.2z"/>
<path class="st2" d="M160.6,243.8c16.9-46.3,43.3-88.6,77.5-124.1c29-30.1,74.2-28.9,74.2-28.9l0.3-0.3
	c22.2-27.4,58.7-38.8,92.6-28.9c4.3,1.2,7.6,1.8,9.2,1.2c28.7-10,27.4-32.7,52.1-51c43.4-32,187.2,4.7,207.5,63.5
	c16.4,47.7,89.8,70.8,117.2,107.3c4.3,5.7,8.5,11.5,12.6,17.3c1.9,2.7,3.8,5.4,5.7,8.2c19.4,28.1,36.8,57.6,52.1,88.2
	c10,20,18.8,40.6,26.1,61.7c28.6,83.6,18.8,145.9-60,130.5c-9.3-1.8-18.4-3.5-27.3-4.9c-12.9-2.1-25.3-3.8-37.2-5.2
	c-16.1-1.8-31.4-3-46-3.6c-4.9-0.2-9.7-0.3-14.4-0.4c-69.7-1-121.3,12.1-160.7,32.5c-6.7,3.4-13,7.1-19,10.9
	c-9.1,5.8-17.8,12.3-26.1,19.3c-11.4,9.8-21.9,20.6-31.4,32.2L465,570c-46,56.3-61.2,118.7-93.2,129.7
	C234.9,746.6,148.3,576.5,139.4,410c-0.4-8.4-0.7-16.8-0.7-25.1c0-3.7,0-7.4,0.1-11.2c0.1-9.7,0.6-19.3,1.3-28.8
	c0.3-3.6,0.6-7.2,0.9-10.8c0.4-3.9,0.8-7.7,1.3-11.5C145.7,294.5,151.8,267.9,160.6,243.8z"/>
<path class="st1" d="M585,335.3c-10.9,5.1-11.1,27.9-7.7,35.3l6.2,13.4l39.6-18.4l-6.2-13.4C613.5,344.8,596,330.3,585,335.3z"/>
<path class="st1" d="M478.6,527.4c-2.4,0-4.3-1.9-4.3-4.3c0-0.5,0.1-1,0.3-1.5c0.4-1.1,1.2-2,2.2-2.4l204.6-95
	c2.2-1,4.7-0.1,5.8,2.1c0,0,0,0,0,0c1,2.2,0.1,4.7-2.1,5.8h0l-204.6,95C479.9,527.2,479.2,527.4,478.6,527.4z"/>
<rect x="623" y="377.6" transform="matrix(0.9069 -0.4214 0.4214 0.9069 -143.9497 321.3741)" class="st0" width="64.5" height="217.7"/>
<path class="st1" d="M419.1,125.6c-10.9,5.1-11.1,27.9-7.7,35.3l6.2,13.4l39.6-18.4l-6.2-13.4C447.6,135.1,430.1,120.5,419.1,125.6z
	"/>
<path class="st1" d="M664.1,627.9l-18,8.4c-2.7,1.3-5.8,1.7-8.7,1.2c-2.6-0.6-4.4-2.2-4.8-4.4l-4.2-19.6c-0.8-3.7,2.3-8.1,7.3-10.4
	l9.9-4.6c5-2.3,10.3-1.8,12.6,1.1l12.2,15.8c1.4,1.8,1.4,4.1,0.2,6.5C669.2,624.6,666.9,626.7,664.1,627.9z"/>
<path class="st1" d="M608.8,655.3l-18,8.4c-2.7,1.3-5.8,1.7-8.7,1.2c-2.6-0.6-4.4-2.2-4.8-4.4l-4.2-19.6c-0.8-3.7,2.3-8.1,7.3-10.4
	l9.9-4.6c5-2.3,10.3-1.8,12.6,1.1l12.2,15.8c1.4,1.8,1.4,4.1,0.2,6.5C613.9,652,611.6,654.1,608.8,655.3z"/>
<rect x="519.5" y="191.1" transform="matrix(0.9069 -0.4214 0.4214 0.9069 -121.8447 270.7563)" class="st0" width="64.5" height="440"/>
<polyline class="st1" points="549,403.7 542.4,389.3 546.2,387.5 552.7,401.9 647.4,611.9 643.7,613.7 "/>
<polyline class="st1" points="623,391.7 616.4,377.3 620.2,375.5 626.7,389.9 721.4,599.9 717.7,601.7 "/>
<path class="st0" d="M515.9,229.9l-79.2,36.8c-5-7.8-20.2-48.1-16.8-60l-2.6-11.4l54.7-25.4l7.3,9
	C490.2,182.3,511.3,220.1,515.9,229.9z"/>
<path class="st0" d="M474.2,170.4l-56.5,26.2c-2.1,1-4.3,0.6-5-0.8c-0.1-0.2-0.2-0.4-0.2-0.6l-2.9-31.2c-0.1-1.3,1-2.8,2.8-3.7
	l37.4-17.4c1.7-0.8,3.6-0.7,4.6,0.2l21.9,22.3c1.1,1.1,0.5,3.1-1.4,4.4C474.8,170.1,474.5,170.3,474.2,170.4z"/>
<path class="st1" d="M518.5,414.6c-0.6,0-1.2-0.1-1.8-0.2c-1.7-0.4-3.1-1.5-3.9-3l-34.5-74.3c-1.4-3.1,0.5-7,4.3-8.8l50.5-23.5
	c3.8-1.8,8-0.7,9.5,2.4l34.5,74.3c0.7,1.6,0.6,3.4-0.2,4.9c-0.9,1.7-2.3,3.1-4.1,3.8l-50.5,23.5
	C521.1,414.3,519.8,414.6,518.5,414.6z"/>
<rect x="509.8" y="429.3" transform="matrix(0.9069 -0.4214 0.4214 0.9069 -176.285 278.5037)" class="st0" width="64.5" height="217.7"/>
<path class="st1" d="M453.4,173.7l-17.1,8c-3.3,1.5-7.8-1-9.9-5.7s-1.3-9.7,2.1-11.3l17.1-8c3.3-1.5,7.8,1,9.9,5.7
	S456.7,172.1,453.4,173.7z"/>
<path class="st1" d="M473,386.5c-10.9,5.1-11.1,27.9-7.7,35.3l6.2,13.4l39.6-18.4l-6.2-13.4C501.5,396,484,381.5,473,386.5z"/>
<path class="st0" d="M291.4,341c-3.9,2.6-7.8-3.6-3.9-6C291.3,332.4,295.3,338.6,291.4,341z"/>
<path class="st0" d="M693.4,253c-3.9,2.6-7.8-3.6-3.9-6C693.3,244.4,697.3,250.6,693.4,253z"/>
<path class="st0" d="M419.4,323c-3.9,2.6-7.8-3.6-3.9-6C419.3,314.4,423.3,320.6,419.4,323z"/>
<path class="st0" d="M291.4,563c-3.9,2.6-7.8-3.6-3.9-6C291.3,554.4,295.3,560.6,291.4,563z"/>
<path class="st0" d="M488.4,62c-3.9,2.6-7.8-3.6-3.9-6C488.3,53.4,492.3,59.6,488.4,62z"/>
<path class="st0" d="M298.4,180c-3.9,2.6-7.8-3.6-3.9-6C298.3,171.4,302.3,177.6,298.4,180z"/>
<polygon class="st0" points="571.6,146.2 569.2,145.7 569.7,143.2 568.1,142.8 567.5,145.3 565.1,144.8 564.7,146.4 567.2,146.9 
	566.6,149.4 568.3,149.8 568.8,147.3 571.3,147.8 "/>
<polygon class="st0" points="171.5,351 169.1,350.4 169.6,348 168,347.6 167.4,350.1 165,349.5 164.6,351.2 167.1,351.7 
	166.5,354.2 168.2,354.5 168.7,352.1 171.2,352.6 "/>
<path class="st1" d="M675.4,455.4c-4.3,2-9.3,0.1-11.3-4.1L654,429.5c-2-4.3-0.1-9.3,4.1-11.3c4.3-2,9.3-0.1,11.3,4.1l10.1,21.8
	C681.5,448.4,679.7,453.5,675.4,455.4z"/>
<path class="st1" d="M503.4,535.4c-4.3,2-9.3,0.1-11.3-4.1L482,509.5c-2-4.3-0.1-9.3,4.1-11.3c4.3-2,9.3-0.1,11.3,4.1l10.1,21.8
	C509.5,528.4,507.7,533.5,503.4,535.4z"/>
<path class="st0" d="M659.9,407.9L592,439.4c-4.3-6.7-17.3-41.1-14.4-51.3l1.4-11.4l40.5-19.9l9,7.5
	C641.2,360,659.7,391.3,659.9,407.9z"/>
<path class="st1" d="M628.4,405.7l-17.1,8c-3.3,1.5-8.3-2.3-11.2-8.4s-2.5-12.5,0.8-14l17.1-8c3.3-1.5,8.3,2.3,11.2,8.4
	S631.7,404.2,628.4,405.7z"/>
<polyline class="st1" points="483,446.7 476.4,432.3 480.2,430.5 486.7,444.9 581.4,654.9 577.7,656.7 "/>
<path class="st0" d="M547.8,459.1L480,490.6c-10-5.2-25.3-39-14.4-51.3l1.4-11.4l40.5-19.9l9,7.5
	C525.8,418.3,543.9,450.6,547.8,459.1z"/>
<path class="st1" d="M514.9,453.9l-17.1,8c-3.3,1.5-8-1.6-10.5-6.9s-1.8-11,1.5-12.5l17.1-8c3.3-1.5,8,1.6,10.5,6.9
	S518.3,452.4,514.9,453.9z"/>
<circle class="st3" cx="171.3" cy="204.8" r="103"/>
<path class="st4" d="M593.6,312.1l62.6-182.8l-68.7,180.6c-1.2,1.5-0.9,3.7,0.6,4.8s3.7,0.9,4.8-0.6
	C593.3,313.6,593.6,312.9,593.6,312.1L593.6,312.1z"/>
<path class="st1" d="M753.2,203.2c-12.3,4.1-25.8,8.1-40.8,12c-77.1,20.3-180.5,36.2-291.2,44.6c-110.6,8.5-215.2,8.5-294.6,0.2
	c-38.6-4.1-69.2-9.9-90.9-17.4C12.9,234.7,0.9,225.1,0,214.3c-1.6-21.2,40.2-39.9,75.6-51.8l1,2.8C28,181.7,1.9,199,3,214
	c1.5,19.2,46.6,34.8,124,42.9c79.2,8.3,183.6,8.3,294-0.2c110.4-8.4,213.7-24.3,290.6-44.5c75.2-19.8,117.5-42.1,116-61.3
	c-1.2-15.9-32.6-29.5-88.3-38.3l0.5-3c40.5,6.4,89.1,18.7,90.8,41c0.8,10.9-9.6,22.1-31.1,33.4C787.3,190.6,771.8,197,753.2,203.2z"
	/>
<circle class="st5" cx="783.4" cy="375.1" r="10.7"/>
<circle class="st6" cx="851.4" cy="665.1" r="10.7"/>
<circle class="st6" cx="486.4" cy="720.1" r="20.9"/>
<circle class="st1" cx="327.4" cy="454.1" r="10.7"/>
<polygon class="st0" points="687.2,478.8 733.4,490.7 761.7,546.3 713.8,548.2 "/>
<polygon class="st7" points="580.6,398.6 606.1,424 670.6,563.6 658.7,573.8 "/>
<polygon class="st7" points="525.4,421.6 527.4,457.5 588.3,598.7 603.9,596.7 "/>
<polygon class="st0" points="523.7,566.6 498.9,607.3 517.2,667 552.9,635.1 "/>
<path class="st1" d="M743.4,591.6c-12.9,0-27.1-0.5-42.5-1.5c-79.6-5.1-182.7-22.6-290.4-49.5C302.9,513.8,203.6,480.9,131,448
	c-35.4-16-62.6-31.2-80.7-45.1c-19.2-14.7-27.7-27.6-25-38.2c5.1-20.6,50.7-25.1,88.1-25.3l0,3c-51.3,0.2-81.5,8.4-85.2,23
	c-4.7,18.6,33.3,47.7,104.1,79.8c72.5,32.9,171.6,65.7,279.1,92.6c107.5,26.8,210.4,44.4,289.8,49.4c77.6,4.9,124.7-2.9,129.4-21.6
	c3.9-15.5-21.6-38.3-71.7-64.2l1.4-2.7c36.4,18.8,78.6,45.9,73.2,67.6c-2.6,10.6-16.1,18-40,21.9
	C779.8,590.5,763.1,591.6,743.4,591.6z"/>
</svg>
